<svg xmlns="http://www.w3.org/2000/svg" viewBox="0 0 800 600">
  <!-- Design Canvas -->
  <rect x="100" y="50" width="600" height="400" rx="16" fill="#f8fafc" stroke="#94a3b8" stroke-width="2"/>
  
  <!-- Toolbar -->
  <rect x="100" y="50" width="50" height="400" rx="8" fill="#e2e8f0"/>
  
  <!-- Design Tools -->
  <circle cx="125" cy="90" r="15" fill="#0ea5e9"/>
  <circle cx="125" cy="140" r="15" fill="#f97316"/>
  <circle cx="125" cy="190" r="15" fill="#22c55e"/>
  <rect x="110" cy="230" width="30" height="30" rx="6" fill="#8b5cf6"/>
  
  <!-- Design Elements -->
  <rect x="200" y="80" width="200" height="120" rx="8" fill="#f1f5f9"/>
  <rect x="220" y="100" width="160" height="20" rx="4" fill="#0ea5e9"/>
  <rect x="220" y="140" width="120" height="40" rx="4" fill="#e2e8f0"/>
  
  <!-- Color Swatches -->
  <rect x="450" y="80" width="200" height="80" rx="8" fill="#f1f5f9"/>
  <circle cx="480" cy="120" r="15" fill="#ef4444"/>
  <circle cx="520" cy="120" r="15" fill="#f97316"/>
  <circle cx="560" cy="120" r="15" fill="#22c55e"/>
  <circle cx="600" cy="120" r="15" fill="#0ea5e9"/>
  
  <!-- Components -->
  <rect x="200" y="240" width="450" height="180" rx="8" fill="#f1f5f9"/>
  <rect x="220" y="260" width="200" height="40" rx="6" fill="#e2e8f0"/>
  <rect x="220" y="320" width="410" height="80" rx="6" fill="#0ea5e9" opacity="0.1"/>
  <path d="M240,340 h30 m10,0 h40" stroke="#0ea5e9" stroke-width="4" stroke-linecap="round"/>
  <path d="M240,360 h100" stroke="#0ea5e9" stroke-width="4" stroke-linecap="round"/>
  
  <!-- Grid Overlay -->
  <path d="M200,80 v340 M650,80 v340" stroke="#94a3b8" stroke-width="1" opacity="0.1"/>
  <path d="M200,80 h450 M200,420 h450" stroke="#94a3b8" stroke-width="1" opacity="0.1"/>
</svg> 
